HIERARCHY
ROOT Hips
{
 OFFSET 0.000000 0.000000 0.000000
 CHANNELS 6 Xposition Yposition Zposition Yrotation Xrotation Zrotation
 JOINT Chest
 {
  OFFSET 0.000000 9.581000 -0.001100
  CHANNELS 3 Yrotation Xrotation Zrotation
  JOINT Chest2
  {
   OFFSET 0.000000 9.561100 0.002200
   CHANNELS 3 Yrotation Xrotation Zrotation
   JOINT Chest3
   {
    OFFSET 0.000000 9.521100 0.000000
    CHANNELS 3 Yrotation Xrotation Zrotation
    JOINT Chest4
    {
     OFFSET 0.000000 9.511400 0.000000
     CHANNELS 3 Yrotation Xrotation Zrotation
     JOINT Neck
     {
      OFFSET 0.000000 14.375100 0.000000
      CHANNELS 3 Yrotation Xrotation Zrotation
      JOINT Head
      {
       OFFSET 0.000000 8.901200 0.004600
       CHANNELS 3 Yrotation Xrotation Zrotation
       End Site
       {
        OFFSET 0.000000 16.962200 0.002400
       }
      }
     }
     JOINT RightCollar
     {
      OFFSET -2.920100 9.518800 0.000000
      CHANNELS 3 Yrotation Xrotation Zrotation
      JOINT RightShoulder
      {
       OFFSET -13.664500 0.000000 0.000000
       CHANNELS 3 Yrotation Xrotation Zrotation
       JOINT RightElbow
       {
        OFFSET 0.000000 -29.999200 0.000000
        CHANNELS 3 Yrotation Xrotation Zrotation
        JOINT RightWrist
        {
         OFFSET 0.000000 -24.253600 0.000000
         CHANNELS 3 Yrotation Xrotation Zrotation
         End Site
         {
          OFFSET 0.000000 -17.918900 0.000000
         }
        }
       }
      }
     }
     JOINT LeftCollar
     {
      OFFSET 2.920100 9.518800 0.000000
      CHANNELS 3 Yrotation Xrotation Zrotation
      JOINT LeftShoulder
      {
       OFFSET 13.664500 0.000000 0.000000
       CHANNELS 3 Yrotation Xrotation Zrotation
       JOINT LeftElbow
       {
        OFFSET 0.000000 -29.999200 0.000000
        CHANNELS 3 Yrotation Xrotation Zrotation
        JOINT LeftWrist
        {
         OFFSET 0.000000 -24.253600 0.000000
         CHANNELS 3 Yrotation Xrotation Zrotation
         End Site
         {
          OFFSET 0.000000 -17.918900 0.000000
         }
        }
       }
      }
     }
    }
   }
  }
 }
 JOINT RightHip
 {
  OFFSET -7.797300 0.005300 0.000500
  CHANNELS 3 Yrotation Xrotation Zrotation
  JOINT RightKnee
  {
   OFFSET 0.000000 -40.663400 -0.000500
   CHANNELS 3 Yrotation Xrotation Zrotation
   JOINT RightAnkle
   {
    OFFSET 0.000000 -39.523700 -0.000900
    CHANNELS 3 Yrotation Xrotation Zrotation
    JOINT RightToe
    {
     OFFSET 0.000000 -6.418000 14.485300
     CHANNELS 3 Yrotation Xrotation Zrotation
     End Site
     {
      OFFSET 0.000000 -1.465200 6.326400
     }
    }
   }
  }
 }
 JOINT LeftHip
 {
  OFFSET 7.797300 0.005300 0.000500
  CHANNELS 3 Yrotation Xrotation Zrotation
  JOINT LeftKnee
  {
   OFFSET 0.000000 -40.663400 -0.000500
   CHANNELS 3 Yrotation Xrotation Zrotation
   JOINT LeftAnkle
   {
    OFFSET 0.000000 -39.523700 -0.000900
    CHANNELS 3 Yrotation Xrotation Zrotation
    JOINT LeftToe
    {
     OFFSET 0.000000 -6.418000 14.485300
     CHANNELS 3 Yrotation Xrotation Zrotation
     End Site
     {
      OFFSET 0.000000 -1.465200 6.326400
     }
    }
   }
  }
 }
}
MOTION
Frames: 8
Frame Time: 0.008333
0.000000 86.422400 0.000000 0.000000 -5.767877 0.000000 0.000000 11.653817 0.000000 0.000000 -5.885947 0.000000 0.000000 -0.000000 0.000000 0.000000 -0.000000 0.000000 0.000000 12.528835 0.000000 0.000000 0.711642 0.000000 0.000000 -0.000000 0.000000 0.000000 0.000000 -90.000000 0.000000 -2.309062 0.000000 0.000000 2.309062 0.000000 0.000000 -0.000000 0.000000 0.000000 -0.000000 90.000000 0.000000 -2.309062 0.000000 0.000000 2.309062 0.000000 0.000000 8.520406 0.000000 0.000000 1.905762 0.000000 -0.000000 -4.658285 0.000000 0.000000 -0.000000 0.000000 0.000000 8.520406 0.000000 0.000000 1.905762 0.000000 -0.000000 -4.658285 0.000000 0.000000 -0.000000 0.000000
-13.277167 126.910993 30.415520 -160.088823 -49.629394 -2.999383 -4.645485 26.558916 -1.046718 -0.731844 4.521216 -0.018488 -1.187247 7.239111 -0.062833 -3.685770 21.669137 -0.662791 -5.577421 19.952241 -2.551509 -5.426133 -4.416199 -1.467043 1.112261 5.713092 0.189322 2.572432 -9.601753 -8.622941 -92.336642 -61.067394 143.818377 7.685290 19.235675 0.332466 -8.579471 0.990692 -1.977655 -10.175424 -9.825797 14.337768 61.648301 -55.762796 -110.971501 1.634939 -8.281060 23.196492 -6.531302 -23.318295 -10.993690 -13.529562 78.914800 -15.100390 9.660143 -15.266482 3.755228 0.002956 0.002777 0.001310 3.908364 4.730894 -2.201331 129.498150 64.748314 147.680683 10.497909 10.863825 4.004771 -0.003356 0.007194 -0.001487
-13.276855 126.911989 30.417424 -160.085178 -49.656094 -3.002425 -4.635010 26.551876 -1.041030 -0.739530 4.545950 -0.020447 -1.164412 7.185639 -0.055424 -3.709486 21.719877 -0.670469 -5.376905 20.063956 -2.529484 -5.232006 -4.279217 -1.488208 1.078667 5.756485 0.219326 2.525541 -9.647329 -8.645300 -92.366886 -61.037148 143.932135 7.688395 19.255628 0.353636 -8.533786 1.019763 -1.968321 -10.182837 -9.856898 14.341027 61.750579 -55.835679 -111.106582 1.677876 -8.253828 23.177880 -6.525322 -23.290084 -10.995595 -13.519501 78.902900 -15.093812 9.652884 -15.262128 3.761576 0.000947 0.002751 0.000420 3.915020 4.746758 -2.202100 129.494327 64.750021 147.685113 10.515906 10.902696 3.958731 -0.004025 0.011241 -0.001784
-13.276504 126.912116 30.420501 -160.076840 -49.678765 -3.006755 -4.618896 26.533527 -1.028669 -0.746486 4.560204 -0.022352 -1.174000 7.205479 -0.058913 -3.690776 21.697579 -0.661580 -5.208985 20.183483 -2.504753 -5.060622 -4.171090 -1.496002 1.043229 5.822258 0.245288 2.484707 -9.668498 -8.647693 -92.456035 -61.012086 144.084910 7.701183 19.282663 0.373874 -8.527047 1.068453 -1.961846 -10.167996 -9.872621 14.338366 61.803685 -55.874723 -111.195952 1.666761 -8.247580 23.153146 -6.519088 -23.269580 -11.006528 -13.510290 78.899444 -15.078469 9.644962 -15.261867 3.761517 -0.000218 0.001516 -0.000097 3.920087 4.757703 -2.207167 129.493772 64.745092 147.694813 10.520960 10.918417 3.943140 -0.002545 0.014085 -0.001128
-13.274889 126.911513 30.424099 -160.072704 -49.697683 -3.013297 -4.616561 26.547695 -1.024409 -0.736483 4.546601 -0.018593 -1.170881 7.207905 -0.056764 -3.679967 21.701726 -0.654059 -5.064039 20.268580 -2.473996 -4.914563 -4.098183 -1.492227 1.012154 5.877494 0.273884 2.446402 -9.672618 -8.640234 -92.521290 -61.002575 144.197931 7.757903 19.252770 0.421590 -8.518956 1.113406 -1.946656 -10.191921 -9.897944 14.326626 61.868743 -55.919800 -111.262170 1.616638 -8.240954 23.115485 -6.519489 -23.252256 -11.007126 -13.535224 78.880001 -15.104690 9.650844 -15.252061 3.766842 -0.003282 0.001303 -0.001454 3.929593 4.763009 -2.208299 129.494743 64.737932 147.706874 10.503384 10.903771 3.997984 0.000813 0.007163 0.000360
-13.272867 126.912193 30.426557 -160.076082 -49.727466 -3.017680 -4.595525 26.563632 -1.010874 -0.734138 4.550197 -0.017180 -1.167271 7.213426 -0.054493 -3.627192 21.729821 -0.623988 -4.977672 20.294776 -2.439152 -4.792379 -4.067642 -1.481110 0.948112 5.903157 0.302162 2.410255 -9.657949 -8.624734 -92.583664 -60.999958 144.292187 7.776737 19.183435 0.460789 -8.572901 1.107563 -1.940481 -10.210568 -9.862858 14.322891 62.021398 -56.009465 -111.389061 1.613442 -8.217453 23.088689 -6.515316 -23.223970 -11.007174 -13.548575 78.868594 -15.117278 9.661537 -15.250220 3.769429 -0.003516 0.001274 -0.001558 3.943350 4.778049 -2.203374 129.500765 64.740635 147.723810 10.525692 10.945837 3.939146 -0.001538 0.017136 -0.000682
-13.272703 126.913523 30.428898 -160.083674 -49.762753 -3.007175 -4.555388 26.581482 -0.982185 -0.731094 4.563733 -0.013313 -1.186419 7.220779 -0.064907 -3.612622 21.750478 -0.609538 -4.880069 20.288646 -2.405818 -4.692993 -4.080001 -1.466741 0.921295 5.928366 0.327658 2.377329 -9.626762 -8.601658 -92.628929 -61.000448 144.353593 7.784044 19.177707 0.478947 -8.595657 1.100937 -1.936687 -10.235375 -9.830555 14.317191 62.106188 -56.089955 -111.416005 1.633780 -8.206755 23.039817 -6.502557 -23.191612 -11.020996 -13.574479 78.856858 -15.142850 9.672907 -15.252114 3.773731 -0.002987 0.001256 -0.001323 3.953371 4.807182 -2.206967 129.495972 64.761179 147.706411 10.529811 10.949736 4.003640 -0.010114 0.011805 -0.004482
-13.272546 126.914055 30.431676 -160.071211 -49.790083 -3.009406 -4.550938 26.602618 -0.972386 -0.733180 4.570479 -0.015400 -1.174229 7.232536 -0.058947 -3.624637 21.751206 -0.610093 -4.787374 20.266029 -2.370278 -4.616659 -4.128650 -1.451277 0.909498 5.939894 0.338898 2.354073 -9.555668 -8.556979 -92.650028 -60.999945 144.376895 7.783653 19.180291 0.494171 -8.584932 1.127524 -1.920344 -10.267685 -9.858895 14.305779 62.065702 -56.087644 -111.352089 1.678178 -8.091751 23.032550 -6.503630 -23.165641 -11.034847 -13.614607 78.843782 -15.184054 9.683554 -15.259021 3.776644 -0.002474 0.000789 -0.001096 3.967457 4.816267 -2.212797 129.492951 64.762368 147.718666 10.523456 10.957070 4.029654 -0.011286 0.011156 -0.005001
